<?xml version="1.0" encoding="UTF-8"?>
<svg width="30px" height="30px" viewBox="0 0 30 30" version="1.1" xmlns="http://www.w3.org/2000/svg" xmlns:xlink="http://www.w3.org/1999/xlink">
    <title>uganda</title>
    <g id="Page-1" stroke="none" stroke-width="1" fill="none" fill-rule="evenodd">
        <g id="DSK-/-Country-selector--Copy" transform="translate(-752.000000, -408.000000)" fill-rule="nonzero">
            <g id="uganda" transform="translate(752.000000, 408.000000)">
                <path d="M26.1792773,24.9999609 C28.5548437,22.3461328 30,18.8421094 30,15 C30,11.1578906 28.5547852,7.65380859 26.1792188,4.99998047 L15,3.91306641 L3.82078125,4.99998047 C1.44521484,7.65380859 0,11.1578906 0,15 C0,18.8421094 1.44515625,22.3461328 3.82072266,24.9999609 L15,26.0869336 L26.1792773,24.9999609 Z" id="Path" fill="#FFDA44"></path>
                <path d="M3.82078125,4.99998047 L26.1792773,4.99998047 C23.4326953,1.93160156 19.442168,0 15,0 C10.557832,0 6.56730469,1.93160156 3.82078125,4.99998047 Z" id="Path" fill="#000000"></path>
                <path d="M0,15 L15,16.3043555 L30,15 C30,13.2466406 29.6981836,11.5639453 29.1452344,9.99996094 L0.854765625,9.99996094 C0.301816406,11.5639453 0,13.2466406 0,15 Z" id="Path" fill="#D80027"></path>
                <path d="M0.854765625,19.9999805 L29.1453516,19.9999805 C29.6981836,18.4359961 30,16.7533594 30,15 L0,15 C0,16.7533594 0.301816406,18.4359961 0.854765625,19.9999805 Z" id="Path" fill="#000000"></path>
                <path d="M26.1792773,24.9999609 L3.82072266,24.9999609 C6.56724609,28.0683984 10.5577734,30 15,30 C19.4422266,30 23.4327539,28.0683984 26.1792773,24.9999609 Z" id="Path" fill="#D80027"></path>
                <path d="M20.0054297,15 C20.0054297,17.7646289 17.7646289,20.0054297 15,20.0054297 C12.2353711,20.0054297 9.99457031,17.7646289 9.99457031,15 C9.99457031,12.2353711 12.2353711,9.99457031 15,9.99457031 C17.7646289,9.99457031 20.0054297,12.2353711 20.0054297,15 Z" id="Path" fill="#F0F0F0"></path>
                <path d="M16.8336914,15.2552344 L15,14.4606445 C15,14.4606445 15.4290234,13.0366406 15.451875,12.9391992 C15.4685742,12.8680078 15.4774805,12.7937695 15.4774805,12.7174805 C15.4774805,12.4473047 15.3679687,12.2027344 15.1908984,12.0257813 L15.6520312,11.5646484 C15.3570117,11.2696289 14.949375,11.0871094 14.4991406,11.0871094 C14.0489062,11.0871094 13.6412695,11.2695703 13.34625,11.5646484 L13.8073828,12.0257813 C13.6303125,12.202793 13.5208594,12.4473633 13.5208594,12.7174805 C13.5208594,12.8162695 13.5358008,12.9114844 13.5630469,13.0014258 L12.8687695,13.6956445 L14.1306445,13.6956445 C14.1306445,13.6956445 13.6089258,14.4792773 13.3241016,15.1228125 C13.0392773,15.7662891 13.3280273,16.5518555 13.9862695,16.8444727 L14.3668945,17.0136328 L15,17.6087109 L15,18.2608594 L14.3478516,18.9130078 L15.652207,18.9130078 L15.652207,17.6086523 L16.2473437,17.0135156 L17.4782812,17.0135156 C17.4841992,17.0012695 17.4904102,16.9893164 17.4960352,16.9767773 C17.7884766,16.3185938 17.4919922,15.5477344 16.8336914,15.2552344 Z" id="Path" fill="#000000"></path>
            </g>
        </g>
    </g>
</svg>