<?xml version="1.0" encoding="UTF-8"?>
<svg width="30px" height="30px" viewBox="0 0 30 30" version="1.1" xmlns="http://www.w3.org/2000/svg" xmlns:xlink="http://www.w3.org/1999/xlink">
    <title>botswana</title>
    <g id="Page-1" stroke="none" stroke-width="1" fill="none" fill-rule="evenodd">
        <g id="DSK-/-Country-selector--Copy" transform="translate(-348.000000, -285.000000)" fill-rule="nonzero">
            <g id="botswana" transform="translate(348.000000, 285.000000)">
                <path d="M0.708339844,10.4347087 C0.248847656,11.8743042 5.8583405e-05,13.4078844 5.8583405e-05,14.9999414 C5.8583405e-05,16.5918812 0.248847656,18.12552 0.708398438,19.5651741 L15.0000586,20.2174423 L29.2916602,19.5651741 C29.7510937,18.12552 30,16.5918226 30,15 C30,13.4080016 29.7511523,11.8743042 29.2916602,10.4347087 L15,9.78255774 L0.708339844,10.4347087 Z" id="Path" fill="#F0F0F0"></path>
                <path d="M30,15 C30,14.1101332 29.9220703,13.2384892 29.773418,12.3912203 L0.226640625,12.3912203 C0.0779296875,13.2384892 0,14.1100161 0,14.9999414 C0,15.8898668 0.0779882812,16.7613936 0.226640625,17.6086625 L29.773418,17.6086625 C29.9220117,16.761335 30,15.8898082 30,15 Z" id="Path" fill="#000000"></path>
                <g id="Group" transform="translate(0.708340, 0.000000)" fill="#338AF3">
                    <path d="M14.2917188,30 C20.9840625,30 26.6518359,25.6169946 28.5833203,19.5651155 L5.859375e-05,19.5651155 C1.93160156,25.616936 7.59943359,29.9998828 14.2917188,30 Z" id="Path"></path>
                    <path d="M14.2917188,1.38556497e-15 C7.59943359,1.38556497e-15 1.93166016,4.3830054 0,10.4347673 L28.5832031,10.4347673 C26.6517773,4.3830054 20.9839453,-0.000117187958 14.2917188,1.38556497e-15 Z" id="Path"></path>
                </g>
            </g>
        </g>
    </g>
</svg>