<svg width="1440" height="576" viewBox="0 0 1440 576" fill="none" xmlns="http://www.w3.org/2000/svg">
<g clip-path="url(#clip0_102_2638)">
<rect width="1440" height="576" fill="#00008C"/>
<g clip-path="url(#clip1_102_2638)">
<path opacity="0.05" d="M2308.4 -263.225C2306.02 -309.71 2271.67 -349.681 2221.97 -360.475C1964.17 -410.061 1701.66 -435.898 1438 -438C1174.33 -435.898 911.823 -410.061 654.038 -360.475C604.332 -349.681 569.987 -309.71 567.603 -263.225C547.394 -64.3576 499.827 445.804 523.415 651.187C577.659 1113.82 937.304 1412.28 1371.57 1560.51C1392.87 1568.09 1414.17 1574.59 1436.65 1580C1437.01 1579.9 1437.59 1579.73 1438 1579.61C1438.39 1579.72 1438.98 1579.9 1439.36 1580C1461.84 1574.59 1483.14 1568.1 1504.44 1560.51C1938.72 1412.28 2298.36 1113.82 2352.59 651.187C2376.16 445.804 2328.61 -64.3576 2308.4 -263.225Z" fill="#0051FF"/>
<path opacity="0.1" d="M2211.42 -170.532C2209.31 -211.853 2178.79 -247.382 2134.62 -256.977C1905.54 -301.053 1672.29 -324.019 1438 -325.888C1203.71 -324.019 970.451 -301.053 741.388 -256.977C697.221 -247.382 666.702 -211.853 664.585 -170.532C646.627 6.23868 604.36 459.716 625.32 642.278C673.52 1053.51 993.093 1318.8 1378.97 1450.57C1397.9 1457.3 1416.83 1463.08 1436.8 1467.89C1437.12 1467.8 1437.64 1467.65 1438 1467.55C1438.35 1467.64 1438.87 1467.8 1439.21 1467.89C1459.18 1463.08 1478.11 1457.31 1497.04 1450.57C1882.93 1318.8 2202.5 1053.51 2250.69 642.278C2271.63 459.716 2229.38 6.23868 2211.42 -170.532Z" fill="#0051FF"/>
<path opacity="0.15" d="M2116.87 -79.7733C2115.01 -116.036 2088.22 -147.217 2049.45 -155.637C1848.38 -194.319 1643.64 -214.474 1438 -216.114C1232.35 -214.474 1027.61 -194.319 826.553 -155.637C787.786 -147.217 760.998 -116.036 759.139 -79.7733C743.378 75.3617 706.278 473.335 724.675 633.552C766.982 994.449 1047.49 1227.27 1386.18 1342.91C1402.8 1348.82 1419.41 1353.89 1436.95 1358.11C1437.23 1358.03 1437.68 1357.9 1438 1357.81C1438.31 1357.89 1438.77 1358.03 1439.06 1358.11C1456.59 1353.89 1473.21 1348.83 1489.82 1342.91C1828.53 1227.27 2109.04 994.449 2151.33 633.552C2169.71 473.335 2132.63 75.3617 2116.87 -79.7733Z" fill="#0051FF"/>
<path opacity="0.2" d="M2012.61 20.6413C2011.04 -10.0261 1988.37 -36.3954 1955.55 -43.5164C1785.36 -76.2297 1612.06 -93.2748 1438 -94.6616C1263.93 -93.2748 1090.64 -76.2297 920.456 -43.5164C887.641 -36.3954 864.968 -10.0261 863.394 20.6413C850.053 151.839 818.651 488.404 834.223 623.899C870.033 929.108 1107.46 1126.01 1394.14 1223.8C1408.21 1228.8 1422.27 1233.09 1437.11 1236.66C1437.35 1236.59 1437.73 1236.48 1438 1236.4C1438.26 1236.47 1438.65 1236.59 1438.9 1236.66C1453.74 1233.09 1467.8 1228.81 1481.86 1223.8C1768.56 1126.01 2005.99 929.108 2041.78 623.899C2057.35 488.404 2025.95 151.839 2012.61 20.6413Z" fill="#0051FF"/>
<path opacity="0.25" d="M1906.66 122.424C1905.37 97.4281 1886.88 75.9355 1860.11 70.1314C1721.3 43.468 1579.95 29.5752 1437.98 28.4448C1296 29.5752 1154.65 43.468 1015.85 70.1314C989.083 75.9355 970.589 97.4281 969.306 122.424C958.424 229.358 932.811 503.68 945.512 614.118C974.72 862.882 1168.37 1023.37 1402.21 1103.08C1413.68 1107.15 1425.15 1110.65 1437.25 1113.56C1437.44 1113.5 1437.76 1113.41 1437.98 1113.35C1438.19 1113.4 1438.51 1113.5 1438.71 1113.56C1450.81 1110.65 1462.28 1107.16 1473.75 1103.08C1707.6 1023.37 1901.25 862.882 1930.45 614.118C1943.14 503.68 1917.54 229.358 1906.66 122.424Z" fill="#0051FF"/>
<path opacity="0.4" d="M1786.69 237.708C1785.27 219.162 1772.03 202.932 1752.06 198.851C1649.07 177.83 1543.61 167.879 1437.98 167.879C1332.35 167.879 1226.89 177.83 1123.9 198.851C1103.93 202.925 1090.69 219.162 1089.27 237.708C1083.17 317.314 1062.12 520.987 1071.57 603.04C1093.29 787.876 1237.84 906.033 1411.37 966.342C1419.92 969.318 1428.43 971.961 1437.44 974.123C1437.58 974.082 1437.82 974.012 1437.98 973.97C1438.14 974.019 1438.38 974.082 1438.52 974.123C1447.53 971.961 1456.07 969.367 1464.59 966.342C1638.58 907.118 1782.67 787.876 1804.39 603.04C1813.84 520.987 1792.8 317.307 1786.69 237.708Z" fill="#0051FF"/>
<path opacity="0.5" d="M1669.45 352.531C1668.51 340.203 1659.72 329.412 1646.46 326.702C1578.09 312.728 1508.09 306.112 1437.97 306.112C1367.85 306.112 1297.84 312.728 1229.47 326.702C1216.22 329.412 1207.43 340.203 1206.49 352.531C1202.43 405.446 1188.47 540.823 1194.74 595.365C1209.16 718.22 1305.11 796.763 1420.31 836.851C1425.98 838.824 1431.64 840.589 1437.62 842.028C1437.72 842 1437.87 841.958 1437.98 841.924C1438.08 841.951 1438.24 842 1438.34 842.028C1444.32 840.589 1449.98 838.866 1455.65 836.851C1571.14 797.486 1666.79 718.227 1681.22 595.365C1687.49 540.823 1673.51 405.439 1669.47 352.531" fill="#0051FF"/>
<path d="M1578.68 437.758C1578.1 430.343 1572.76 423.853 1564.71 422.223C1523.16 413.819 1480.61 409.84 1438 409.84C1395.38 409.84 1352.83 413.819 1311.29 422.223C1303.23 423.853 1297.89 430.343 1297.31 437.758C1294.85 469.583 1286.36 551.004 1290.17 583.807C1298.94 657.697 1357.25 704.935 1427.26 729.046C1430.71 730.233 1434.15 731.294 1437.78 732.159C1437.84 732.143 1437.94 732.118 1438 732.097C1438.07 732.113 1438.16 732.143 1438.22 732.159C1441.85 731.294 1445.29 730.258 1448.74 729.046C1518.93 705.37 1577.06 657.701 1585.83 583.807C1589.64 551.004 1581.15 469.579 1578.69 437.758" fill="#0051FF"/>
</g>
</g>
<defs>
<clipPath id="clip0_102_2638">
<rect width="1440" height="576" fill="white"/>
</clipPath>
<clipPath id="clip1_102_2638">
<rect x="517" y="-518" width="1842" height="2098" rx="20" fill="white"/>
</clipPath>
</defs>
</svg>
